<?xml version="1.0" encoding="utf-8"?>
<!-- Generator: Adobe Illustrator 25.2.0, SVG Export Plug-In . SVG Version: 6.00 Build 0)  -->
<svg version="1.1" id="Layer_1" xmlns="http://www.w3.org/2000/svg" xmlns:xlink="http://www.w3.org/1999/xlink" x="0px" y="0px"
	 viewBox="0 0 1051 900" style="enable-background:new 0 0 1051 900;" xml:space="preserve">
<style type="text/css">
	.st0{fill:#8D8DAA;fill-opacity:0.27;}
</style>
<path class="st0" d="M441,339.5c170-120.8,251.2-283,270.5-349l188-83c114.7,14.7,348.9,51.8,368.5,83c24.5,39-34,129-105,136.5
	S916.5,339.5,858,403s-66,378-217,422s-329.5-19.5-366-114.5S228.5,490.5,441,339.5z"/>
<g>
	<path shape-rendering="crispEdges" class="st0" d="M302.1,325.2C573,153.3,702.4-77.6,733.2-171.5l299.6-118.1
		c182.7,20.9,556,73.7,587.2,118.1c39,55.5-54.2,183.6-167.3,194.3c-113.1,10.7-392.8,302.4-486,392.8
		c-93.2,90.4-105.2,537.9-345.8,600.6c-240.6,62.6-525.1-27.8-583.2-162.9C-20.5,718-36.5,540.1,302.1,325.2z"/>
</g>
</svg>
