<svg width="1051" height="900" viewBox="0 0 1051 900" fill="none" xmlns="http://www.w3.org/2000/svg">
<path d="M441 339.5C611 218.7 692.167 56.5 711.5 -9.5L899.5 -92.5C1014.17 -77.8333 1248.4 -40.7 1268 -9.5C1292.5 29.5 1234 119.5 1163 127C1092 134.5 916.5 339.5 858 403C799.5 466.5 792 781 641 825C490 869 311.5 805.5 275 710.5C238.5 615.5 228.5 490.5 441 339.5Z" fill="#FF7200" fill-opacity="0.27"/>
<g filter="url(#filter0_d_16_3)">
<path d="M301.15 356.797C572.042 184.882 701.379 -45.9519 732.186 -139.879L1031.76 -258C1214.48 -237.127 1587.72 -184.281 1618.96 -139.879C1658 -84.3767 1564.78 43.706 1451.64 54.3796C1338.5 65.0531 1058.85 356.797 965.631 447.167C872.412 537.536 860.461 985.114 619.846 1047.73C379.231 1110.35 94.7949 1019.98 36.6329 884.783C-21.529 749.584 -37.4638 571.692 301.15 356.797Z" fill="#FF7200" fill-opacity="0.27" shape-rendering="crispEdges"/>
</g>
<defs>
<filter id="filter0_d_16_3" x="0" y="-258" width="1632" height="1334" filterUnits="userSpaceOnUse" color-interpolation-filters="sRGB">
<feFlood flood-opacity="0" result="BackgroundImageFix"/>
<feColorMatrix in="SourceAlpha" type="matrix" values="0 0 0 0 0 0 0 0 0 0 0 0 0 0 0 0 0 0 127 0" result="hardAlpha"/>
<feOffset dy="4"/>
<feGaussianBlur stdDeviation="2"/>
<feComposite in2="hardAlpha" operator="out"/>
<feColorMatrix type="matrix" values="0 0 0 0 0 0 0 0 0 0 0 0 0 0 0 0 0 0 0.25 0"/>
<feBlend mode="normal" in2="BackgroundImageFix" result="effect1_dropShadow_16_3"/>
<feBlend mode="normal" in="SourceGraphic" in2="effect1_dropShadow_16_3" result="shape"/>
</filter>
</defs>
</svg>
